<svg height="512" viewBox="0 0 24 24" width="512" xmlns="http://www.w3.org/2000/svg"><g id="Layer_2" data-name="Layer 2"><path d="m19 22.75h-14a1.76 1.76 0 0 1 -1.75-1.75v-18a1.76 1.76 0 0 1 1.75-1.75h14a1.76 1.76 0 0 1 1.75 1.75v18a1.76 1.76 0 0 1 -1.75 1.75zm-14-20a.25.25 0 0 0 -.25.25v18a.25.25 0 0 0 .25.25h14a.25.25 0 0 0 .25-.25v-18a.25.25 0 0 0 -.25-.25z" fill="#232323"/><path d="m14.78 5.75h-5.56a1.75 1.75 0 0 1 -1.66-1.2l-.77-2.31a.75.75 0 1 1 1.42-.48l.79 2.32a.26.26 0 0 0 .24.17h5.56a.26.26 0 0 0 .2-.17.75.75 0 1 1 1.42.47 1.75 1.75 0 0 1 -1.64 1.2z" fill="#232323"/><path d="m10 12.75h-3a.76.76 0 0 1 -.75-.75v-3a.76.76 0 0 1 .75-.75h3a.76.76 0 0 1 .75.75v3a.76.76 0 0 1 -.75.75zm-2.25-1.5h1.5v-1.5h-1.5z" fill="#7fbde7"/><path d="m10 18.75h-3a.76.76 0 0 1 -.75-.75v-3a.76.76 0 0 1 .75-.75h3a.76.76 0 0 1 .75.75v3a.76.76 0 0 1 -.75.75zm-2.25-1.5h1.5v-1.5h-1.5z" fill="#232323"/><path d="m14.25 12.42a.79.79 0 0 1 -.53-.22l-1.25-1.2a.75.75 0 0 1 0-1.06.74.74 0 0 1 1.06 0l.72.72 2-2a.74.74 0 0 1 1.06 0 .75.75 0 0 1 0 1.06l-2.5 2.5a.79.79 0 0 1 -.56.2z" fill="#7fbde7"/><g fill="#232323"><path d="m16.25 18.5a.74.74 0 0 1 -.53-.22l-2.5-2.5a.75.75 0 0 1 1.06-1.06l2.5 2.5a.75.75 0 0 1 0 1.06.74.74 0 0 1 -.53.22z"/><path d="m13.75 18.5a.74.74 0 0 1 -.53-.22.75.75 0 0 1 0-1.06l2.5-2.5a.75.75 0 0 1 1.06 1.06l-2.5 2.5a.74.74 0 0 1 -.53.22z"/></g></g></svg>