<svg height="512" viewBox="0 0 24 24" width="512" xmlns="http://www.w3.org/2000/svg"><g id="Layer_2" data-name="Layer 2"><path d="m17 22.75h-12a3.754 3.754 0 0 1 -3.75-3.75v-12a3.754 3.754 0 0 1 3.75-3.75h12a3.754 3.754 0 0 1 3.75 3.75v7.16a.75.75 0 0 1 -1.5 0v-7.16a2.252 2.252 0 0 0 -2.25-2.25h-12a2.252 2.252 0 0 0 -2.25 2.25v12a2.252 2.252 0 0 0 2.25 2.25h12a.75.75 0 0 1 0 1.5z" fill="#232323"/><path d="m20 9.75h-18a.75.75 0 0 1 -.75-.75v-2a3.754 3.754 0 0 1 3.75-3.75h12a3.754 3.754 0 0 1 3.75 3.75v2a.75.75 0 0 1 -.75.75zm-17.25-1.5h16.5v-1.25a2.252 2.252 0 0 0 -2.25-2.25h-12a2.252 2.252 0 0 0 -2.25 2.25z" fill="#232323"/><path d="m17 22.75a5.25 5.25 0 1 1 5.25-5.25 5.256 5.256 0 0 1 -5.25 5.25zm0-9a3.75 3.75 0 1 0 3.75 3.75 3.754 3.754 0 0 0 -3.75-3.75z" fill="#7fbde7"/><path d="m14.5 6.75a.75.75 0 0 1 -.75-.75v-4a.75.75 0 0 1 1.5 0v4a.75.75 0 0 1 -.75.75z" fill="#232323"/><path d="m7.5 6.75a.75.75 0 0 1 -.75-.75v-4a.75.75 0 0 1 1.5 0v4a.75.75 0 0 1 -.75.75z" fill="#232323"/><path d="m18 19.75a.749.749 0 0 1 -.624-.334l-1-1.5a.751.751 0 0 1 -.126-.416v-2.5a.75.75 0 0 1 1.5 0v2.273l.874 1.311a.75.75 0 0 1 -.624 1.166z" fill="#7fbde7"/></g></svg>