<svg height="512" viewBox="0 0 24 24" width="512" xmlns="http://www.w3.org/2000/svg"><g id="Layer_2" data-name="Layer 2"><path d="m11.5 11.315a1.248 1.248 0 0 1 -1.25-1.25v-8.065a.75.75 0 0 1 .75-.75h6a.75.75 0 0 1 0 1.5h-5.25v6.85l1.557-1.038a1.245 1.245 0 0 1 1.384 0l1.559 1.038v-4.6a.75.75 0 0 1 1.5 0v5.065a1.249 1.249 0 0 1 -1.943 1.04l-1.807-1.205-1.807 1.2a1.244 1.244 0 0 1 -.693.215z" fill="#7fbde7"/><path d="m19 22.75h-14a2.752 2.752 0 0 1 -2.75-2.75v-16a2.752 2.752 0 0 1 2.75-2.75h14a2.752 2.752 0 0 1 2.75 2.75v16a2.752 2.752 0 0 1 -2.75 2.75zm-14-20a1.252 1.252 0 0 0 -1.25 1.25v16a1.252 1.252 0 0 0 1.25 1.25h14a1.252 1.252 0 0 0 1.25-1.25v-16a1.252 1.252 0 0 0 -1.25-1.25z" fill="#232323"/></g></svg>