<svg height="512" viewBox="0 0 24 24" width="512" xmlns="http://www.w3.org/2000/svg"><g id="Layer_2" data-name="Layer 2"><path d="m20 22.75h-16a2.752 2.752 0 0 1 -2.75-2.75v-12a2.752 2.752 0 0 1 2.75-2.75h16a2.752 2.752 0 0 1 2.75 2.75v12a2.752 2.752 0 0 1 -2.75 2.75zm-16-16a1.252 1.252 0 0 0 -1.25 1.25v12a1.252 1.252 0 0 0 1.25 1.25h16a1.252 1.252 0 0 0 1.25-1.25v-12a1.252 1.252 0 0 0 -1.25-1.25z" fill="#232323"/><path d="m7 11.75a2.752 2.752 0 0 1 -2.75-2.75.75.75 0 0 1 1.5 0 1.25 1.25 0 0 0 2.5 0v-5a1.25 1.25 0 0 0 -2.5 0v2a.75.75 0 0 1 -1.5 0v-2a2.75 2.75 0 0 1 5.5 0v5a2.752 2.752 0 0 1 -2.75 2.75z" fill="#7fbde7"/><g fill="#232323"><path d="m17 14.75h-10a.75.75 0 0 1 0-1.5h10a.75.75 0 0 1 0 1.5z"/><path d="m13 18.75h-6a.75.75 0 0 1 0-1.5h6a.75.75 0 0 1 0 1.5z"/><path d="m6 6.75h-2a.75.75 0 0 1 0-1.5h2a.75.75 0 0 1 0 1.5z"/></g></g></svg>