<svg id="Layer_1" viewBox="0 0 48 48" xmlns="http://www.w3.org/2000/svg" data-name="Layer 1"><path d="m39.5 45h-4.5a1 1 0 0 1 -1-1v-40a1 1 0 0 1 1-1h4.5a2.50294 2.50294 0 0 1 2.5 2.5v6.5a1 1 0 0 1 -2 0v-6.5a.50034.50034 0 0 0 -.5-.5h-3.5v38h3.5a.50034.50034 0 0 0 .5-.5v-6.5a1 1 0 0 1 2 0v6.5a2.50294 2.50294 0 0 1 -2.5 2.5z"/><g fill="#7fbde7"><path d="m41.5 37h-3.82617a1 1 0 0 1 0-2h3.82617a.50034.50034 0 0 0 .5-.5v-5a.50034.50034 0 0 0 -.5-.5h-5.5v7a1 1 0 0 1 -2 0v-8a1 1 0 0 1 1-1h6.5a2.50294 2.50294 0 0 1 2.5 2.5v5a2.50294 2.50294 0 0 1 -2.5 2.5z"/><path d="m39 34a1 1 0 0 1 -1-1v-2a1 1 0 0 1 2 0v2a1 1 0 0 1 -1 1z"/><path d="m41.5 29h-6.5a1 1 0 0 1 -1-1v-8a1 1 0 0 1 1-1h6.5a2.50294 2.50294 0 0 1 2.5 2.5v5a2.50294 2.50294 0 0 1 -2.5 2.5zm-5.5-2h5.5a.50034.50034 0 0 0 .5-.5v-5a.50034.50034 0 0 0 -.5-.5h-5.5z"/><path d="m39 26a1 1 0 0 1 -1-1v-2a1 1 0 0 1 2 0v2a1 1 0 0 1 -1 1z"/><path d="m41.5 21h-6.5a1 1 0 0 1 -1-1v-8a1 1 0 0 1 2 0v7h5.5a.50034.50034 0 0 0 .5-.5v-5a.50034.50034 0 0 0 -.5-.5h-3.5a1 1 0 0 1 0-2h3.5a2.50294 2.50294 0 0 1 2.5 2.5v5a2.50294 2.50294 0 0 1 -2.5 2.5z"/><path d="m39 18a1 1 0 0 1 -1-1v-2a1 1 0 0 1 2 0v2a1 1 0 0 1 -1 1z"/></g><path d="m35 45h-28a3.00328 3.00328 0 0 1 -3-3v-36a3.00328 3.00328 0 0 1 3-3h28a1 1 0 0 1 1 1v40a1 1 0 0 1 -1 1zm-28-40a1.0013 1.0013 0 0 0 -1 1v36a1.0013 1.0013 0 0 0 1 1h27v-38z"/><path d="m28 27h-16a2.002 2.002 0 0 1 -2-2v-15a2.002 2.002 0 0 1 2-2h16a2.002 2.002 0 0 1 2 2v15a2.002 2.002 0 0 1 -2 2zm-16-17v15h16.00146l-.00146-15z"/><path d="m26 24h-12a1 1 0 0 1 -1-1v-11a1 1 0 0 1 1-1h12a1 1 0 0 1 1 1v11a1 1 0 0 1 -1 1zm-11-2h10v-9h-10z"/><path d="m28 40h-16a2.002 2.002 0 0 1 -2-2v-6a2.002 2.002 0 0 1 2-2h16a2.002 2.002 0 0 1 2 2v6a2.002 2.002 0 0 1 -2 2zm-16-8v6h16.00146l-.00146-6z"/><path d="m25 36h-10a1 1 0 0 1 0-2h10a1 1 0 0 1 0 2z" fill="#7fbde7"/></svg>