<svg height="512" viewBox="0 0 24 24" width="512" xmlns="http://www.w3.org/2000/svg"><g id="Layer_2" data-name="Layer 2"><g fill="#7fbde7"><path d="m16.1 22.223a2.754 2.754 0 0 1 -2.651-2.04l-3.621-13.522a2.752 2.752 0 0 1 1.944-3.369l3.865-1.035a2.754 2.754 0 0 1 3.368 1.943l3.623 13.523a2.752 2.752 0 0 1 -1.944 3.369l-3.864 1.035a2.779 2.779 0 0 1 -.72.096zm.245-18.56a1.25 1.25 0 0 0 -.324.043l-3.86 1.035a1.251 1.251 0 0 0 -.884 1.531l3.623 13.528a1.239 1.239 0 0 0 .582.759 1.226 1.226 0 0 0 .948.125l3.87-1.04a1.251 1.251 0 0 0 .884-1.531l-3.628-13.523a1.253 1.253 0 0 0 -1.208-.927z"/><path d="m14.935 9.613a2.251 2.251 0 1 1 .581-.077 2.254 2.254 0 0 1 -.581.077zm0-3a.726.726 0 0 0 -.2.026.749.749 0 0 0 -.531.918.75.75 0 0 0 1.374.181.749.749 0 0 0 -.648-1.125z"/><path d="m16.332 19.126a.75.75 0 0 1 -.194-1.474l2.9-.777a.75.75 0 1 1 .388 1.449l-2.9.777a.765.765 0 0 1 -.194.025z"/><path d="m15.555 16.229a.75.75 0 0 1 -.193-1.475l2.9-.776a.75.75 0 1 1 .387 1.449l-2.9.776a.769.769 0 0 1 -.194.026z"/></g><path d="m8 22.75h-4a2.752 2.752 0 0 1 -2.75-2.75v-16a2.752 2.752 0 0 1 2.75-2.75h4a2.752 2.752 0 0 1 2.75 2.75v16a2.752 2.752 0 0 1 -2.75 2.75zm-4-20a1.252 1.252 0 0 0 -1.25 1.25v16a1.252 1.252 0 0 0 1.25 1.25h4a1.252 1.252 0 0 0 1.25-1.25v-16a1.252 1.252 0 0 0 -1.25-1.25z" fill="#232323"/><path d="m6 8.25a2.25 2.25 0 1 1 2.25-2.25 2.252 2.252 0 0 1 -2.25 2.25zm0-3a.75.75 0 1 0 .75.75.75.75 0 0 0 -.75-.75z" fill="#232323"/><path d="m7.5 17.75h-3a.75.75 0 0 1 0-1.5h3a.75.75 0 0 1 0 1.5z" fill="#232323"/><path d="m7.5 14.75h-3a.75.75 0 0 1 0-1.5h3a.75.75 0 0 1 0 1.5z" fill="#232323"/></g></svg>