<svg height="512" viewBox="0 0 24 24" width="512" xmlns="http://www.w3.org/2000/svg"><g id="Layer_2" data-name="Layer 2"><path d="m8 14a4.99926 4.99926 0 1 1 4.19531-2.2793.99991.99991 0 1 1 -1.67676-1.08984 3.00036 3.00036 0 1 0 -2.51855 1.36914 1 1 0 0 1 0 2z" fill="#232323"/><path d="m12 21h-8a2.00229 2.00229 0 0 1 -2-2v-1a6 6 0 0 1 12 0v1a2.00229 2.00229 0 0 1 -2 2zm-4-7a4.00427 4.00427 0 0 0 -4 4v1h8.00146l-.00146-1a4.00427 4.00427 0 0 0 -4-4z" fill="#232323"/><g fill="#7fbde7"><path d="m17.5 10.59961a3.796 3.796 0 1 1 3.57666-2.51367 1.00008 1.00008 0 1 1 -1.88184-.67774 1.80037 1.80037 0 1 0 -1.69482 1.19141 1 1 0 0 1 0 2z"/><path d="m20.3125 15.2002h-5.625a1.68919 1.68919 0 0 1 -1.6875-1.6875v-.47559a4.4423 4.4423 0 0 1 4.4375-4.4375h.125a4.4423 4.4423 0 0 1 4.4375 4.4375v.47559a1.68919 1.68919 0 0 1 -1.6875 1.6875zm-5.3125-2h5v-.16309a2.44032 2.44032 0 0 0 -2.4375-2.4375h-.125a2.44032 2.44032 0 0 0 -2.4375 2.4375z"/></g></g></svg>