<svg height="512" viewBox="0 0 24 24" width="512" xmlns="http://www.w3.org/2000/svg"><g id="Layer_2" data-name="Layer 2"><g fill="#232323"><path d="m16 22.75h-11a3.754 3.754 0 0 1 -3.75-3.75v-12a3.754 3.754 0 0 1 3.75-3.75h12a3.755 3.755 0 0 1 3.75 3.75v7a.75.75 0 0 1 -1.5 0v-7a2.253 2.253 0 0 0 -2.25-2.25h-12a2.252 2.252 0 0 0 -2.25 2.25v12a2.252 2.252 0 0 0 2.25 2.25h11a1.265 1.265 0 0 0 .271-.023.75.75 0 0 1 .318 1.466 2.725 2.725 0 0 1 -.589.057z"/><path d="m20 9.75h-18a.75.75 0 0 1 -.75-.75v-2a3.754 3.754 0 0 1 3.75-3.75h12a3.755 3.755 0 0 1 3.75 3.75v2a.75.75 0 0 1 -.75.75zm-17.25-1.5h16.5v-1.25a2.253 2.253 0 0 0 -2.25-2.25h-12a2.252 2.252 0 0 0 -2.25 2.25z"/><path d="m14.5 6.75a.75.75 0 0 1 -.75-.75v-4a.75.75 0 0 1 1.5 0v4a.75.75 0 0 1 -.75.75z"/><path d="m7.5 6.75a.75.75 0 0 1 -.75-.75v-4a.75.75 0 0 1 1.5 0v4a.75.75 0 0 1 -.75.75z"/></g><path d="m16.542 19.583a.75.75 0 0 1 -.53-.219l-.917-.917a.75.75 0 1 1 1.06-1.061l.387.387 1.3-1.3a.75.75 0 0 1 1.06 1.06l-1.833 1.834a.75.75 0 0 1 -.527.216z" fill="#7fbde7"/><path d="m17 22.75a5.25 5.25 0 1 1 5.25-5.25 5.256 5.256 0 0 1 -5.25 5.25zm0-9a3.75 3.75 0 1 0 3.75 3.75 3.755 3.755 0 0 0 -3.75-3.75z" fill="#7fbde7"/></g></svg>