<svg height="512" viewBox="0 0 24 24" width="512" xmlns="http://www.w3.org/2000/svg"><g id="Layer_2" data-name="Layer 2"><path d="m8 14.75h-4a2.752 2.752 0 0 1 -2.75-2.75v-4a2.752 2.752 0 0 1 2.75-2.75h4a.75.75 0 0 1 .75.75v8a.75.75 0 0 1 -.75.75zm-4-8a1.252 1.252 0 0 0 -1.25 1.25v4a1.252 1.252 0 0 0 1.25 1.25h3.25v-6.5z" fill="#232323"/><path d="m15 18.134a1.745 1.745 0 0 1 -.784-.187l-6.551-3.276a.751.751 0 0 1 -.415-.671v-8a.751.751 0 0 1 .415-.671l6.552-3.276a1.75 1.75 0 0 1 2.533 1.565v12.764a1.754 1.754 0 0 1 -1.75 1.752zm-6.251-4.6 6.138 3.068a.247.247 0 0 0 .243-.01.244.244 0 0 0 .119-.213v-12.761a.244.244 0 0 0 -.119-.213.247.247 0 0 0 -.243-.01l-6.137 3.068z" fill="#232323"/><g fill="#7fbde7"><path d="m22 10.75h-3.5a.75.75 0 0 1 0-1.5h3.5a.75.75 0 0 1 0 1.5z"/><path d="m18 6.75a.75.75 0 0 1 -.416-1.374l3-2a.75.75 0 1 1 .832 1.248l-3 2a.748.748 0 0 1 -.416.126z"/><path d="m21 16.75a.748.748 0 0 1 -.416-.126l-3-2a.75.75 0 0 1 .832-1.248l3 2a.75.75 0 0 1 -.416 1.374z"/></g><path d="m8.27 21.75h-.97a2.249 2.249 0 0 1 -2.223-1.939l-.819-5.7a.749.749 0 0 1 .742-.861h3a.75.75 0 0 1 0 1.5h-2.133l.7 4.854a.736.736 0 0 0 .737.646h.97a.738.738 0 0 0 .563-.257.767.767 0 0 0 .184-.6l-.329-2.334a.75.75 0 1 1 1.485-.209l.329 2.34a2.258 2.258 0 0 1 -2.236 2.56z" fill="#232323"/></g></svg>