<svg height="512" viewBox="0 0 32 32" width="512" xmlns="http://www.w3.org/2000/svg"><g id="Layer_2" data-name="Layer 2"><g fill="#232323"><path d="m15 31h-10a4 4 0 0 1 -4-4v-1a7.008 7.008 0 0 1 7-7h4a7.008 7.008 0 0 1 7 7v1a4 4 0 0 1 -4 4zm-7-10a5.006 5.006 0 0 0 -5 5v1a2 2 0 0 0 2 2h10a2 2 0 0 0 2-2v-1a5.006 5.006 0 0 0 -5-5z"/><path d="m10 21a6.5 6.5 0 1 1 6.5-6.5 6.508 6.508 0 0 1 -6.5 6.5zm0-11a4.5 4.5 0 1 0 4.5 4.5 4.505 4.505 0 0 0 -4.5-4.5z"/><path d="m22.5 18a8.5 8.5 0 1 1 8.5-8.5 8.51 8.51 0 0 1 -8.5 8.5zm0-15a6.5 6.5 0 1 0 6.5 6.5 6.508 6.508 0 0 0 -6.5-6.5z"/></g><path d="m22.5 11a1 1 0 0 1 -1-1v-4a1 1 0 0 1 2 0v4a1 1 0 0 1 -1 1z" fill="#7fbde7"/><circle cx="22.5" cy="13" fill="#7fbde7" r="1"/></g></svg>