<svg id="Layer_1" height="512" viewBox="0 0 24 24" width="512" xmlns="http://www.w3.org/2000/svg" data-name="Layer 1"><path d="m12 19.472a1.743 1.743 0 0 1 -1.093-.387l-1.319-1.054a1.752 1.752 0 0 1 -.555-1.955l2.26-6.328a.751.751 0 0 1 1.414.5l-2.261 6.329a.248.248 0 0 0 .079.278l1.319 1.056a.251.251 0 0 0 .312 0l1.319-1.056a.251.251 0 0 0 .079-.279l-1.261-3.528a.75.75 0 1 1 1.413-.5l1.26 3.528a1.752 1.752 0 0 1 -.554 1.955l-1.319 1.055a1.748 1.748 0 0 1 -1.093.386z" fill="#7fbde7"/><g fill="#232323"><path d="m12 10.75a4.75 4.75 0 1 1 4.75-4.75 4.756 4.756 0 0 1 -4.75 4.75zm0-8a3.25 3.25 0 1 0 3.25 3.25 3.254 3.254 0 0 0 -3.25-3.25z"/><path d="m17 22.75h-10a2.752 2.752 0 0 1 -2.75-2.75v-3a7.75 7.75 0 0 1 15.5 0v3a2.752 2.752 0 0 1 -2.75 2.75zm-5-12a6.257 6.257 0 0 0 -6.25 6.25v3a1.252 1.252 0 0 0 1.25 1.25h10a1.252 1.252 0 0 0 1.25-1.25v-3a6.257 6.257 0 0 0 -6.25-6.25z"/></g></svg>