<svg height="512" viewBox="0 0 24 24" width="512" xmlns="http://www.w3.org/2000/svg"><g id="Layer_2" data-name="Layer 2"><path d="m21.95 11.75h-8.95a.75.75 0 0 1 0-1.5h8.084a9.271 9.271 0 0 0 -8.158-7.45.75.75 0 0 1 .148-1.5 10.767 10.767 0 0 1 9.626 9.626.75.75 0 0 1 -.746.824z" fill="#7fbde7"/><path d="m21.95 11.75h-8.95a.75.75 0 0 1 0-1.5h8.084a9.276 9.276 0 0 0 -7.334-7.334v5.084a.75.75 0 0 1 -1.5 0v-5.95a.75.75 0 0 1 .824-.746 10.767 10.767 0 0 1 9.626 9.622.75.75 0 0 1 -.746.824z" fill="#7fbde7"/><path d="m11.45 22.746a10.377 10.377 0 0 1 -1.534-.115 10.251 10.251 0 0 1 -.033-20.252.751.751 0 0 1 .867.741v9.88a.25.25 0 0 0 .25.25h9.88a.751.751 0 0 1 .741.867 10.3 10.3 0 0 1 -10.171 8.629zm-2.2-18.7a8.753 8.753 0 1 0 10.708 10.704h-8.958a1.752 1.752 0 0 1 -1.75-1.75z" fill="#232323"/></g></svg>