<svg height="512" viewBox="0 0 24 24" width="512" xmlns="http://www.w3.org/2000/svg"><g id="Layer_2" data-name="Layer 2"><g fill="#232323"><path d="m20 21.75h-16a2.752 2.752 0 0 1 -2.75-2.75v-12a2.752 2.752 0 0 1 2.75-2.75h16a2.752 2.752 0 0 1 2.75 2.75v12a2.752 2.752 0 0 1 -2.75 2.75zm-16-16a1.252 1.252 0 0 0 -1.25 1.25v12a1.252 1.252 0 0 0 1.25 1.25h16a1.252 1.252 0 0 0 1.25-1.25v-12a1.252 1.252 0 0 0 -1.25-1.25z"/><path d="m7 7.75a.75.75 0 0 1 -.75-.75v-4a.75.75 0 0 1 1.5 0v4a.75.75 0 0 1 -.75.75z"/><path d="m17 7.75a.75.75 0 0 1 -.75-.75v-4a.75.75 0 0 1 1.5 0v4a.75.75 0 0 1 -.75.75z"/><path d="m19 10.75h-17a.75.75 0 0 1 0-1.5h17a.75.75 0 0 1 0 1.5z"/></g><path d="m11 17.75a.744.744 0 0 1 -.53-.22l-2-2a.75.75 0 0 1 1.06-1.06l1.47 1.469 3.47-3.469a.75.75 0 0 1 1.06 1.06l-4 4a.744.744 0 0 1 -.53.22z" fill="#7fbde7"/></g></svg>