<svg height="512" viewBox="0 0 24 24" width="512" xmlns="http://www.w3.org/2000/svg"><g id="Layer_2" data-name="Layer 2"><g fill="#7fbde7"><path d="m22 4.75h-6a.75.75 0 0 1 0-1.5h6a.75.75 0 0 1 0 1.5z"/><path d="m22 8.75h-6a.75.75 0 0 1 0-1.5h6a.75.75 0 0 1 0 1.5z"/><path d="m22 12.75h-6a.75.75 0 0 1 0-1.5h6a.75.75 0 0 1 0 1.5z"/></g><path d="m8.8 12.75a5.383 5.383 0 1 1 3.954-1.729.75.75 0 0 1 -1.098-1.021 3.884 3.884 0 1 0 -2.856 1.25.75.75 0 1 1 0 1.5z" fill="#232323"/><path d="m12.826 22.018h-8.045a3.532 3.532 0 0 1 -3.462-4.218l.146-.727a7.257 7.257 0 0 1 7.1-5.818h.484a7.258 7.258 0 0 1 7.1 5.818l.145.727a3.531 3.531 0 0 1 -3.462 4.223zm-4.264-9.268a5.751 5.751 0 0 0 -5.626 4.612l-.146.727a2.032 2.032 0 0 0 1.991 2.429h8.045a2.032 2.032 0 0 0 1.991-2.429l-.145-.727a5.752 5.752 0 0 0 -5.626-4.612z" fill="#232323"/></g></svg>