<svg width="24" height="24" viewBox="0 0 24 24" fill="none" xmlns="http://www.w3.org/2000/svg">
<path d="M3 12.0004C3 16.9709 7.02944 21.0004 12 21.0004C16.0977 21.0004 19.5557 18.2619 20.6439 14.5153C19.3346 15.4503 17.7315 16.0004 16 16.0004C11.5817 16.0004 8 12.4186 8 8.00036C8 6.26883 8.55011 4.66578 9.48509 3.35645C5.73845 4.44464 3 7.9027 3 12.0004Z" fill="#292556" fill-opacity="0.18"/>
<path d="M3 12.0004C3 16.9709 7.02944 21.0004 12 21.0004C16.0977 21.0004 19.5557 18.2619 20.6439 14.5153C19.3346 15.4503 17.7315 16.0004 16 16.0004C11.5817 16.0004 8 12.4186 8 8.00036C8 6.26883 8.55011 4.66578 9.48509 3.35645C5.73845 4.44464 3 7.9027 3 12.0004Z" stroke="#292556" stroke-width="1.5" stroke-linejoin="round"/>
</svg>
