<svg width="24" height="24" viewBox="0 0 24 24" fill="none" xmlns="http://www.w3.org/2000/svg">
<path fill-rule="evenodd" clip-rule="evenodd" d="M9.5 5.5C5.91015 5.5 3 8.41015 3 12C3 15.5899 5.91015 18.5 9.5 18.5H14.5C18.0899 18.5 21 15.5899 21 12C21 8.41015 18.0899 5.5 14.5 5.5L9.5 5.5ZM9.5 9C7.84315 9 6.5 10.3431 6.5 12C6.5 13.6569 7.84315 15 9.5 15C11.1569 15 12.5 13.6569 12.5 12C12.5 10.3431 11.1569 9 9.5 9Z" fill="#292556" fill-opacity="0.18"/>
<path d="M3.75 12C3.75 8.82436 6.32436 6.25 9.5 6.25V4.75C5.49594 4.75 2.25 7.99594 2.25 12H3.75ZM9.5 17.75C6.32436 17.75 3.75 15.1756 3.75 12H2.25C2.25 16.0041 5.49594 19.25 9.5 19.25V17.75ZM14.5 17.75H9.5V19.25H14.5V17.75ZM20.25 12C20.25 15.1756 17.6756 17.75 14.5 17.75V19.25C18.5041 19.25 21.75 16.0041 21.75 12L20.25 12ZM14.5 6.25C17.6756 6.25 20.25 8.82436 20.25 12L21.75 12C21.75 7.99594 18.5041 4.75 14.5 4.75V6.25ZM9.5 6.25L14.5 6.25V4.75L9.5 4.75V6.25ZM7.25 12C7.25 10.7574 8.25736 9.75 9.5 9.75V8.25C7.42893 8.25 5.75 9.92893 5.75 12H7.25ZM9.5 14.25C8.25736 14.25 7.25 13.2426 7.25 12H5.75C5.75 14.0711 7.42893 15.75 9.5 15.75V14.25ZM11.75 12C11.75 13.2426 10.7426 14.25 9.5 14.25V15.75C11.5711 15.75 13.25 14.0711 13.25 12H11.75ZM9.5 9.75C10.7426 9.75 11.75 10.7574 11.75 12H13.25C13.25 9.92893 11.5711 8.25 9.5 8.25V9.75Z" fill="#292556" fill-opacity="0.18"/>
<path d="M3 12C3 8.41015 5.91015 5.5 9.5 5.5L14.5 5.5C18.0899 5.5 21 8.41015 21 12V12C21 15.5899 18.0899 18.5 14.5 18.5H9.5C5.91015 18.5 3 15.5899 3 12V12Z" stroke="#292556" stroke-width="1.5" stroke-linejoin="round"/>
<path d="M6.5 12C6.5 10.3431 7.84315 8.99998 9.5 8.99998V8.99998C11.1569 8.99998 12.5 10.3431 12.5 12V12C12.5 13.6568 11.1569 15 9.5 15V15C7.84315 15 6.5 13.6568 6.5 12V12Z" stroke="#292556" stroke-width="1.5" stroke-linejoin="round"/>
</svg>
