<svg id="Layer_1" height="512" viewBox="0 0 24 24" width="512" xmlns="http://www.w3.org/2000/svg" data-name="Layer 1"><path d="m16 22.75h-8a.75.75 0 0 1 -.75-.75v-6a2.752 2.752 0 0 1 2.75-2.75h4a2.752 2.752 0 0 1 2.75 2.75v3a.75.75 0 0 1 -1.5 0v-3a1.252 1.252 0 0 0 -1.25-1.25h-4a1.252 1.252 0 0 0 -1.25 1.25v5.25h7.25a.75.75 0 0 1 0 1.5z" fill="#7fbde7"/><path d="m19 22.75h-14a2.753 2.753 0 0 1 -2.75-2.75v-9.1a2.753 2.753 0 0 1 .923-2.056l7-6.221a2.749 2.749 0 0 1 3.654 0l7 6.222a2.749 2.749 0 0 1 .923 2.055v9.1a2.753 2.753 0 0 1 -2.75 2.75zm-7-19.324a1.242 1.242 0 0 0 -.83.316l-7 6.222a1.252 1.252 0 0 0 -.419.934v9.102a1.252 1.252 0 0 0 1.249 1.25h14a1.252 1.252 0 0 0 1.25-1.25v-9.1a1.252 1.252 0 0 0 -.419-.934l-7-6.222a1.246 1.246 0 0 0 -.831-.318z" fill="#232323"/></svg>