<svg id="Layer_1" height="512" viewBox="0 0 24 24" width="512" xmlns="http://www.w3.org/2000/svg" data-name="Layer 1"><path d="m22 13.75h-6a.75.75 0 0 1 0-1.5h6a.75.75 0 0 1 0 1.5z" fill="#ba0c2f"/><path d="m20 15.75a.75.75 0 0 1 -.53-1.28l1.469-1.47-1.469-1.47a.75.75 0 0 1 1.06-1.06l2 2a.749.749 0 0 1 0 1.06l-2 2a.744.744 0 0 1 -.53.22z" fill="#ba0c2f"/><g fill="#232323"><path d="m11 22.273a1.75 1.75 0 0 1 -.65-.125l-8-3.2a1.744 1.744 0 0 1 -1.1-1.625v-13.705a1.75 1.75 0 0 1 2.533-1.565l8 4a1.741 1.741 0 0 1 .967 1.565v12.905a1.75 1.75 0 0 1 -1.75 1.75zm-.093-1.518a.249.249 0 0 0 .233-.025.244.244 0 0 0 .11-.207v-12.905a.248.248 0 0 0 -.138-.223l-8-4a.239.239 0 0 0 -.243.01.244.244 0 0 0 -.119.213v13.705a.249.249 0 0 0 .157.232z"/><path d="m19 19.75h-7a.75.75 0 0 1 0-1.5h7a.253.253 0 0 0 .25-.25v-1a.75.75 0 0 1 1.5 0v1a1.752 1.752 0 0 1 -1.75 1.75z"/><path d="m20 9.75a.75.75 0 0 1 -.75-.75v-5a.253.253 0 0 0 -.25-.25h-11a.75.75 0 0 1 0-1.5h11a1.752 1.752 0 0 1 1.75 1.75v5a.75.75 0 0 1 -.75.75z"/></g></svg>