<svg height="512" viewBox="0 0 24 24" width="512" xmlns="http://www.w3.org/2000/svg"><g id="Layer_2" data-name="Layer 2"><path d="m12 15.25a3.25 3.25 0 1 1 2.53-1.21.75.75 0 0 1 -1.167-.943 1.728 1.728 0 0 0 .387-1.097 1.75 1.75 0 1 0 -1.75 1.75.75.75 0 0 1 0 1.5z" fill="#ba0c2f"/><g fill="#232323"><path d="m12 7.75a3.25 3.25 0 1 1 3.25-3.25 3.254 3.254 0 0 1 -3.25 3.25zm0-5a1.75 1.75 0 1 0 1.75 1.75 1.752 1.752 0 0 0 -1.75-1.75z"/><path d="m12 22.75a3.25 3.25 0 1 1 3.25-3.25 3.254 3.254 0 0 1 -3.25 3.25zm0-5a1.75 1.75 0 1 0 1.75 1.75 1.752 1.752 0 0 0 -1.75-1.75z"/></g></g></svg>